<svg width="120" height="48" viewBox="0 0 120 48" fill="none" xmlns="http://www.w3.org/2000/svg">
<path d="M15.8753 10.3603C15.8251 10.3307 15.7755 10.3006 15.7266 10.2705C15.7945 10.2751 15.8631 10.2798 15.931 10.2856L15.8753 10.3603Z" fill="#53389E"/>
<path d="M15.3906 10.1602C15.5535 10.2696 15.7231 10.375 15.8988 10.4769C15.9643 10.3889 16.0298 10.3009 16.0953 10.2134C15.8614 10.1891 15.6245 10.1781 15.3906 10.1607V10.1602Z" fill="#7F56D9"/>
<path d="M15.2884 8.6996C15.0962 8.68166 14.9021 8.64981 14.6976 8.61681C14.3976 8.56817 14.0885 8.5178 13.783 8.51317C13.1677 7.64121 12.8652 6.62566 12.8836 5.49432C12.902 4.3676 13.1995 3.37869 13.767 2.55652C14.3327 1.73725 15.169 1.07836 16.2533 0.597799C17.0161 0.260248 17.8138 0.0888672 18.6256 0.0888672C19.9762 0.0888672 21.3133 0.570587 22.4979 1.4825L21.9053 2.27745L21.7626 2.18192C21.6071 2.0777 21.4535 1.97522 21.2986 1.87331C20.7023 1.48018 20.0325 1.23064 19.307 1.13163C19.0848 1.10152 18.8583 1.08589 18.633 1.08589C16.8343 1.08589 15.1825 2.03254 14.4258 3.49854C13.4952 5.29978 13.8356 7.33145 15.2884 8.70076V8.6996Z" fill="#53389E"/>
<path d="M18.6243 0.173697C19.9284 0.173697 21.2208 0.63052 22.3717 1.49727L21.882 2.15442C21.8599 2.13937 21.8373 2.12489 21.8152 2.10984C21.6591 2.00562 21.5048 1.90256 21.3499 1.80008C20.742 1.39884 20.0588 1.14466 19.3192 1.04334C19.0927 1.01265 18.8619 0.997021 18.6323 0.997021C16.7987 0.997021 15.1145 1.96335 14.3425 3.45831C13.4339 5.2167 13.7149 7.19163 15.0428 8.58179C14.9351 8.56673 14.8255 8.54879 14.7122 8.53026C14.4245 8.48336 14.1282 8.4353 13.8319 8.42662C13.2448 7.57782 12.9564 6.5918 12.9742 5.49461C12.9925 4.38411 13.2846 3.41141 13.8429 2.60256C14.3988 1.79718 15.2228 1.14872 16.2912 0.675102C17.0411 0.342762 17.8266 0.174276 18.6243 0.174276M18.6243 0.00057899C17.7997 0.00057899 16.9848 0.176013 16.2128 0.517617C14.007 1.49495 12.8278 3.18908 12.7899 5.49172C12.7703 6.69891 13.1052 7.72778 13.7321 8.59858H13.7364C14.2629 8.59858 14.8041 8.74564 15.3196 8.78907C15.3949 8.79544 15.4702 8.80123 15.5455 8.80702C15.5026 8.77228 15.4604 8.73696 15.4194 8.70048C13.9396 7.35896 13.5833 5.32323 14.5065 3.53473C15.2528 2.08957 16.896 1.1713 18.6311 1.1713C18.8502 1.1713 19.0713 1.18577 19.2917 1.21588C20.0024 1.31315 20.6545 1.55401 21.244 1.94309C21.4699 2.09247 21.6946 2.24301 21.9254 2.39702C22.1642 2.07684 22.3889 1.77518 22.6203 1.46542C21.3634 0.474772 19.981 0 18.6243 0V0.00057899Z" fill="#7F56D9"/>
<path d="M21.6951 9.71235C21.6627 9.71235 21.6272 9.70425 21.5898 9.68803C21.5427 9.66777 21.498 9.63766 21.4496 9.60524L21.4221 9.58671C20.8154 9.18258 20.2087 8.77844 19.6019 8.37373L19.2211 8.11955L19.1452 8.06628L16.8506 6.53659C16.8121 6.5117 16.7759 6.48796 16.7441 6.46132C16.6713 6.40111 16.6364 6.33337 16.6462 6.27142C16.6559 6.20888 16.711 6.15388 16.8004 6.11567C16.831 6.10293 16.8672 6.09367 16.9051 6.0844L16.9425 6.07514L18.5489 5.66058C19.4507 5.42783 20.3525 5.19507 21.2543 4.96232C21.2923 4.95248 21.3272 4.94727 21.3578 4.94727C21.4013 4.94727 21.517 4.94727 21.5329 5.1476L21.637 6.4648C21.7135 7.43634 21.7906 8.40789 21.8666 9.37943C21.8727 9.45991 21.869 9.52071 21.8555 9.56992C21.8378 9.63477 21.7949 9.71119 21.6951 9.71119V9.71235Z" fill="#53389E"/>
<path d="M21.3564 5.03347C21.3894 5.03347 21.4304 5.03347 21.4402 5.15332L21.5419 6.43868C21.6196 7.42064 21.6974 8.40319 21.7739 9.38516C21.7794 9.45464 21.7763 9.5079 21.7653 9.54728C21.7439 9.62428 21.7078 9.62428 21.6937 9.62428C21.6747 9.62428 21.6514 9.61849 21.6263 9.60807C21.5878 9.59186 21.5461 9.56349 21.5021 9.53396L21.4739 9.51485C20.8715 9.11361 20.269 8.71237 19.6666 8.31055L19.3458 8.0969L19.347 8.09459L19.1964 7.99442L18.9222 7.81146C18.2591 7.36969 17.5961 6.92735 16.9331 6.48558C16.922 6.47863 16.9116 6.4711 16.9006 6.46415C16.8645 6.44041 16.8308 6.41841 16.8027 6.39525C16.7555 6.35588 16.7298 6.3142 16.7347 6.28351C16.7396 6.25224 16.7776 6.21866 16.8357 6.19377C16.859 6.18392 16.8914 6.17582 16.9251 6.16771C16.938 6.16482 16.9514 6.16134 16.9643 6.15787L18.5965 5.73694C19.4897 5.5065 20.3829 5.27607 21.2762 5.04563C21.3062 5.0381 21.3331 5.03405 21.3557 5.03405M21.3557 4.86035C21.3172 4.86035 21.2743 4.86614 21.2278 4.8783C19.7909 5.24943 18.3534 5.61999 16.9165 5.99112C16.8645 6.00444 16.81 6.01486 16.761 6.0357C16.5149 6.13992 16.48 6.35878 16.6821 6.52611C16.7274 6.56374 16.7782 6.59501 16.8278 6.62801C17.582 7.13115 18.3363 7.63371 19.0911 8.13686C19.0911 8.13743 19.0899 8.13801 19.0899 8.13917C19.8491 8.64521 20.6082 9.15182 21.368 9.65728C21.4268 9.69665 21.4855 9.73892 21.551 9.76671C21.6012 9.78813 21.6496 9.79856 21.6943 9.79856C21.8125 9.79856 21.9061 9.7256 21.9435 9.59244C21.9631 9.52296 21.9631 9.44595 21.9576 9.373C21.848 7.962 21.7353 6.55158 21.6245 5.14116C21.6098 4.95762 21.5155 4.86035 21.3576 4.86035H21.3557Z" fill="#7F56D9"/>
<path d="M25.7501 5.46539C25.6515 5.46539 25.5456 5.42833 25.4348 5.35538C25.1268 5.15158 24.8201 4.94661 24.5128 4.74165L24.0591 4.43942L23.6373 4.15861C23.3245 3.95017 23.0116 3.74174 22.6994 3.53272C22.4196 3.34513 22.3786 3.12453 22.5745 2.85878C22.839 2.49922 23.0777 2.17962 23.3043 1.88144C23.4187 1.73033 23.5479 1.65332 23.6875 1.65332C23.7897 1.65332 23.9012 1.69327 24.0199 1.77201C24.9273 2.3759 25.8346 2.98037 26.7406 3.58599C27.021 3.773 27.0608 3.99418 26.8637 4.26051C26.6023 4.61427 26.3635 4.93446 26.1345 5.23843C26.0207 5.38954 25.8915 5.46597 25.7507 5.46597L25.7501 5.46539Z" fill="#53389E"/>
<path d="M23.6863 1.73931C23.769 1.73931 23.8633 1.77405 23.9661 1.84237C24.9071 2.46826 25.8224 3.07851 26.6868 3.65576C26.9232 3.81383 26.9544 3.98463 26.7879 4.20986C26.5301 4.55783 26.292 4.87801 26.0587 5.18719C25.9632 5.31399 25.8591 5.37826 25.7495 5.37826C25.6699 5.37826 25.5818 5.34641 25.4869 5.28388C25.1771 5.07892 24.8685 4.8728 24.56 4.66668C24.4106 4.56709 24.2612 4.46751 24.1118 4.36792C23.9765 4.2776 23.8412 4.18786 23.7059 4.09753C23.3931 3.8891 23.0698 3.67371 22.7521 3.46122C22.5127 3.30026 22.4815 3.13467 22.6492 2.90771C22.9137 2.54816 23.1525 2.22913 23.3778 1.93095C23.4757 1.80184 23.5768 1.73931 23.6863 1.73931ZM23.6863 1.56561C23.5162 1.56561 23.3619 1.65362 23.2284 1.82963C22.9823 2.15386 22.7392 2.48042 22.498 2.80812C22.2721 3.11441 22.3229 3.38653 22.6456 3.6025C23.098 3.90589 23.5523 4.20754 24.0059 4.50977C24.4645 4.81548 24.9218 5.12177 25.3816 5.42632C25.5089 5.51027 25.6326 5.55196 25.7495 5.55196C25.9197 5.55196 26.0765 5.46337 26.2081 5.28794C26.453 4.96254 26.696 4.63657 26.9378 4.30887C27.1625 4.0049 27.1129 3.72756 26.7928 3.51333C25.8867 2.90771 24.9794 2.30324 24.072 1.69936C23.9367 1.60961 23.8082 1.56445 23.687 1.56445L23.6863 1.56561Z" fill="#7F56D9"/>
<path d="M19.7068 13.5722C19.61 13.5722 19.5102 13.5387 19.4111 13.4732C18.5289 12.8896 17.5989 12.2695 16.6463 11.6303C16.3892 11.4578 16.3475 11.2256 16.53 10.9766C16.6322 10.8371 16.7351 10.6976 16.8385 10.5586C16.8765 10.5725 16.9144 10.5858 16.9524 10.5991L17.0644 10.6385C17.3142 10.7265 17.5726 10.8174 17.8364 10.8817C17.9234 10.9025 18.0121 10.9216 18.1003 10.9401C18.2938 10.9813 18.4934 11.0235 18.6758 11.0918C19.1962 11.2858 19.7711 11.5626 20.3839 11.9152C20.5174 11.9922 20.6563 12.031 20.7959 12.031C20.8467 12.031 20.8969 12.0258 20.9471 12.0153C20.9612 12.1242 20.9184 12.244 20.8173 12.3795L20.6869 12.555C20.491 12.8184 20.289 13.0911 20.0876 13.3574C19.9817 13.4975 19.85 13.5717 19.7068 13.5717V13.5722Z" fill="#53389E"/>
<path d="M16.8707 10.6639C16.8866 10.6697 16.9025 10.6755 16.9184 10.6807L17.0292 10.7195C17.2815 10.8086 17.5423 10.9007 17.8116 10.9655C17.9004 10.987 17.991 11.0061 18.0786 11.0246C18.2769 11.0669 18.4649 11.1068 18.6406 11.1722C19.1561 11.3645 19.7261 11.6389 20.3346 11.9892C20.4828 12.0743 20.6377 12.1177 20.7944 12.1177C20.8127 12.1177 20.8305 12.1171 20.8489 12.116C20.8366 12.171 20.8054 12.2416 20.7405 12.3296L20.607 12.5091C20.4124 12.7714 20.2115 13.0424 20.0114 13.307C19.9501 13.388 19.8473 13.4847 19.7052 13.4847C19.6275 13.4847 19.5461 13.4569 19.4622 13.4013C18.5788 12.8166 17.6482 12.197 16.698 11.559C16.4825 11.4142 16.4507 11.2348 16.6043 11.0257C16.6913 10.9071 16.7807 10.786 16.8713 10.6639M16.8033 10.4531C16.6858 10.6106 16.5695 10.7687 16.4531 10.9273C16.2425 11.2145 16.2909 11.4994 16.5915 11.7014C17.511 12.3186 18.433 12.9335 19.3569 13.5449C19.4732 13.6219 19.592 13.6596 19.7052 13.6596C19.876 13.6596 20.0358 13.5739 20.1607 13.4089C20.4062 13.0841 20.6481 12.7569 20.8911 12.4304C21.0344 12.2376 21.0742 12.0645 21.0111 11.9075C20.9432 11.9319 20.8703 11.9452 20.795 11.9452C20.6793 11.9452 20.5556 11.9139 20.4307 11.8421C19.8932 11.5329 19.2944 11.2301 18.7085 11.0119C18.4361 10.9105 18.1404 10.8665 17.8582 10.7982C17.56 10.7258 17.2717 10.6193 16.9827 10.5186C16.9227 10.4977 16.8633 10.4757 16.8033 10.4537V10.4531Z" fill="#7F56D9"/>
<path d="M8.6982 46.2156C7.35805 46.2156 6.10912 45.9528 4.9857 45.4352C4.50633 45.214 3.80473 44.818 3.18516 44.1869C2.3354 43.3207 2.00235 42.4024 1.80338 41.8541C1.42686 40.8171 1.37054 39.955 1.2585 38.2372C1.22361 37.6981 1.20279 37.155 1.19728 36.6218L0.156508 18.0889C0.0744707 17.2604 0.135081 16.4353 0.337113 15.6322C0.52384 14.8894 0.828113 14.1796 1.24136 13.5224C1.24932 13.5097 2.17439 12.105 3.89289 11.1306C5.50486 10.2164 8.09149 9.69238 10.9904 9.69238C16.5401 9.69238 22.1817 11.5428 26.4673 14.7695C30.3408 17.6853 32.2889 21.0001 33.105 22.7168C34.9428 26.5804 35.1547 30.1944 34.9992 32.5781C19.4004 33.7066 10.7051 34.2879 9.15492 34.307C9.05574 34.3081 8.7031 34.3336 8.2623 34.3834C7.60906 34.4575 5.95607 34.7835 4.7151 36.2014C3.39087 37.7149 3.44168 39.4391 3.52433 40.1102C3.59718 40.6996 3.90268 42.1859 5.1559 43.2512C6.12137 44.0722 7.47682 44.4879 9.1843 44.4879C9.63184 44.4879 10.0188 44.4601 10.3016 44.4405L10.3285 44.4387C13.0327 44.2465 17.5938 44.0195 23.907 43.7057C27.3666 43.5338 31.2836 43.3392 35.5991 43.1146L35.5471 44.4468L10.1228 46.119H10.1186C9.64041 46.1832 9.16226 46.2156 8.69759 46.2156H8.6982Z" fill="#6941C6"/>
<path d="M10.989 9.80816C13.5027 9.80816 16.1426 10.2054 18.6221 10.9569C21.4904 11.8259 24.1033 13.1391 26.3894 14.8604C28.2138 16.2338 29.8105 17.8538 31.1353 19.6753C31.8785 20.6972 32.503 21.7365 32.9922 22.7642C34.7945 26.5526 35.0241 30.0994 34.8821 32.4704C19.3531 33.5936 10.6969 34.1726 9.15231 34.1912C9.05007 34.1923 8.69193 34.2178 8.24684 34.2682C7.57891 34.344 5.88857 34.6769 4.62005 36.1279C3.26582 37.6761 3.31725 39.438 3.40235 40.1241C3.47704 40.7268 3.78927 42.2461 5.07371 43.338C6.06244 44.1787 7.44545 44.6049 9.18415 44.6049C9.63658 44.6049 10.026 44.5771 10.3106 44.5568L10.3376 44.5551C13.0405 44.3629 17.8391 44.1243 23.9136 43.8221C27.3377 43.6519 31.2088 43.4591 35.4717 43.2379L35.4539 43.6947L35.4288 44.3391L21.723 45.2406L10.1184 46.0037H10.1098L10.1013 46.0055C9.62862 46.0686 9.1566 46.101 8.69805 46.101C7.37688 46.101 6.1457 45.8422 5.03942 45.3321C4.56924 45.1155 3.88171 44.727 3.275 44.1087C2.443 43.2605 2.1277 42.392 1.91894 41.817C1.54793 40.7951 1.49222 39.9382 1.3808 38.2302C1.3459 37.6946 1.3257 37.1533 1.32019 36.6212V36.616V36.6108L0.751433 26.4889L0.279411 18.0831V18.0785L0.278799 18.0738C0.197986 17.2627 0.257984 16.4503 0.456955 15.6594C0.640621 14.9288 0.939997 14.2305 1.34651 13.5838C1.37529 13.5403 2.28504 12.1785 3.95702 11.2302C5.55001 10.3269 8.11399 9.80874 10.9914 9.80874M10.9914 9.57715C7.96522 9.57715 5.40002 10.1422 3.83151 11.0316C2.06464 12.0332 1.13774 13.4633 1.13774 13.4633C0.832246 13.9491 0.453894 14.6723 0.219414 15.6056C-0.0377186 16.6281 -0.0230253 17.5064 0.0357478 18.0952C0.382877 24.2713 0.729393 30.4468 1.07652 36.6229C1.08019 37.0039 1.09366 37.5655 1.13774 38.2441C1.25039 39.9747 1.30733 40.8403 1.68874 41.8917C1.91159 42.506 2.24709 43.3994 3.09685 44.2656C3.30194 44.4746 3.90192 45.064 4.93351 45.5394C6.28713 46.1635 7.62605 46.3314 8.69988 46.3314C9.26435 46.3314 9.75535 46.2851 10.1374 46.2342C18.6472 45.6743 27.1571 45.115 35.667 44.5551C35.6872 44.034 35.708 43.5129 35.7282 42.9918C23.6007 43.6235 14.5503 44.0224 10.321 44.3235C10.0382 44.3438 9.64393 44.3727 9.1866 44.3727C8.01787 44.3727 6.43589 44.1822 5.23962 43.1655C3.9411 42.0614 3.69682 40.4923 3.64785 40.0969C3.59581 39.6742 3.42745 37.8573 4.81106 36.2755C6.11448 34.7852 7.88624 34.5432 8.27868 34.4986C8.72927 34.4471 9.07089 34.4239 9.15783 34.4228C10.5696 34.4054 17.9095 33.9306 35.116 32.6858C35.25 30.7855 35.25 26.9399 33.2181 22.6693C32.7675 21.7226 30.8843 17.9459 26.5449 14.6792C21.6153 10.9679 15.738 9.57715 10.9914 9.57715Z" fill="black"/>
<path d="M29.6562 16.1217C30.3689 15.1606 31.3166 14.3685 32.4008 13.8283C33.253 13.4034 34.1744 13.1359 35.1393 13.0322L36.7935 14.6522C36.7047 15.6678 36.3723 16.6613 35.8299 17.5287C34.9881 18.8754 33.8365 19.6495 32.9947 20.0687L29.6562 16.1217Z" fill="#53389E"/>
<path d="M35.1062 13.1228L35.9003 13.901L36.6998 14.6838C36.6074 15.6727 36.2804 16.639 35.7521 17.4843C34.9434 18.7784 33.8444 19.5369 33.0204 19.9578L31.4011 18.0431L29.7726 16.1185C30.4723 15.1927 31.3937 14.429 32.4449 13.905C33.2738 13.4922 34.1689 13.2288 35.1062 13.1228ZM35.1754 12.9404C34.5075 13.0088 33.4753 13.1946 32.3592 13.751C30.8446 14.506 29.9611 15.5505 29.543 16.1249C30.686 17.4757 31.8284 18.827 32.9714 20.1778C33.5757 19.8848 34.9391 19.1246 35.9101 17.5723C36.6576 16.3773 36.8388 15.2442 36.8896 14.6195C36.3184 14.0596 35.7466 13.5003 35.1754 12.9404Z" fill="#7F56D9"/>
<path d="M38.6711 13.551C38.6129 13.551 38.5566 13.5504 38.5027 13.5487C38.0228 13.3096 37.5832 13.0062 37.1963 12.6466C36.8228 12.2998 36.5032 11.9049 36.2461 11.4736C36.2614 11.319 36.3563 10.5171 36.7567 9.57972C37.3126 8.27931 38.1734 7.35177 39.3152 6.82315C40.0015 6.50471 40.7606 6.34375 41.5706 6.34375C43.7091 6.34375 45.7888 7.46815 47.0463 9.29023C46.7353 9.24449 46.4347 9.22191 46.1506 9.22191C45.4637 9.22191 44.8459 9.35623 44.3139 9.62141C43.4746 10.0394 43.0356 10.6833 42.6113 11.3057C42.184 11.9322 41.7426 12.5801 40.883 13.0386C40.2451 13.3791 39.5013 13.5516 38.6711 13.5516V13.551Z" fill="#53389E"/>
<path d="M41.5705 6.42916C43.6147 6.42916 45.6056 7.47308 46.8552 9.17589C46.6121 9.14752 46.3764 9.13362 46.1505 9.13362C45.4483 9.13362 44.8159 9.27142 44.271 9.54297C43.4102 9.972 42.9651 10.6251 42.5341 11.2568C42.1129 11.8746 41.6776 12.5132 40.8377 12.9613C40.2138 13.2942 39.4847 13.4627 38.671 13.4627C38.6239 13.4627 38.5755 13.4627 38.5271 13.461C38.0625 13.2271 37.6364 12.9318 37.2611 12.5832C36.9005 12.2486 36.5913 11.8682 36.3409 11.4531C36.3629 11.2516 36.4658 10.4925 36.8423 9.61071C37.3896 8.33114 38.2351 7.41865 39.3555 6.8993C40.0295 6.58722 40.7746 6.42858 41.5705 6.42858M41.5705 6.25488C40.7673 6.25488 39.983 6.41526 39.2747 6.74297C36.4848 8.03586 36.1646 11.3402 36.1523 11.4907C36.3476 11.8224 36.6574 12.2654 37.1319 12.7066C37.6235 13.1634 38.1163 13.454 38.4788 13.633C38.54 13.6347 38.6037 13.6358 38.6704 13.6358C39.2814 13.6358 40.1159 13.5449 40.9277 13.1119C42.6762 12.1791 42.7104 10.5157 44.3561 9.69582C44.7546 9.49723 45.3314 9.30674 46.1499 9.30616C46.4725 9.30616 46.8319 9.33569 47.2335 9.40632C45.9013 7.35091 43.671 6.25488 41.5705 6.25488Z" fill="#7F56D9"/>
<path d="M28.9157 14.7965C28.789 14.7965 28.6537 14.7444 28.5135 14.6419L28.5092 14.639L28.5049 14.6367C28.1718 14.4329 27.8921 14.2065 27.6747 13.9645C27.5994 13.8805 27.5315 13.796 27.5198 13.6808C27.5027 13.5134 27.6202 13.3704 27.6766 13.3015C27.6821 13.2946 28.088 12.799 28.9071 11.6728C28.9818 11.5698 29.0063 11.5316 29.0596 11.447C29.1232 11.3457 29.2304 11.1766 29.5218 10.743C29.7036 10.4714 29.8891 10.1987 30.0722 9.93354C31.3144 7.95166 31.5176 7.3993 31.6192 7.00269C31.678 6.77283 31.7203 6.53371 31.7448 6.29169L31.7674 6.06299L31.5593 6.18168C31.2801 6.34091 31.0083 6.51924 30.7511 6.71088C30.7303 6.72651 30.2387 7.09417 29.7569 7.5921C29.1887 8.1792 27.7543 10.0291 25.9483 12.7028L25.9446 12.7081L25.9415 12.7138C25.9397 12.7179 25.8907 12.8094 25.7872 12.8244C25.7768 12.8262 25.767 12.8268 25.7579 12.8268C25.6948 12.8268 25.647 12.7966 25.6336 12.788L24.2861 11.8616C24.2708 11.8517 24.2622 11.8436 24.2561 11.8349C24.2212 11.7828 24.2493 11.6502 24.3712 11.5061L24.3755 11.5009C24.6834 11.0921 25.1022 10.5368 25.5999 9.87969C28.0255 6.67556 28.4082 6.20369 29.0124 5.67044C29.9258 4.86506 31.015 4.19517 32.2517 3.67871C32.4996 3.71692 32.8547 3.81362 33.2031 4.05737C33.5722 4.31618 33.7779 4.63057 33.8875 4.85638C33.8637 5.78334 33.721 6.69988 33.4639 7.5811C33.2912 8.17225 33.0672 8.75066 32.7972 9.30012C32.5498 9.80327 32.3931 10.0227 32.1758 10.3261C32.0135 10.5531 31.8109 10.8356 31.5164 11.3173C30.7597 12.5552 30.3183 13.184 29.4397 14.4363C29.3712 14.5348 29.212 14.7612 28.9732 14.7924C28.9543 14.7947 28.9353 14.7959 28.9163 14.7959L28.9157 14.7965Z" fill="#6941C6"/>
<path d="M32.267 3.79985C32.4985 3.83922 32.8174 3.93302 33.1297 4.15188C33.4652 4.38695 33.658 4.67065 33.7639 4.88198C33.7382 5.78984 33.5974 6.68785 33.3458 7.55171C33.175 8.13706 32.9533 8.70911 32.6864 9.25278C32.4434 9.74781 32.2885 9.96378 32.0748 10.2631C31.9113 10.4918 31.7075 10.7761 31.4112 11.2613C30.6557 12.4969 30.2155 13.1251 29.3376 14.3757C29.2788 14.4596 29.141 14.6559 28.9574 14.6796C28.9439 14.6814 28.9304 14.682 28.917 14.682C28.8196 14.682 28.7064 14.6368 28.5894 14.5517L28.5815 14.5459L28.5729 14.5407C28.2497 14.3433 27.9797 14.1244 27.7697 13.8905C27.6931 13.8054 27.6503 13.7452 27.6429 13.671C27.6307 13.5489 27.728 13.4308 27.7746 13.374L27.7764 13.3717C27.7929 13.3514 28.1939 12.8605 29.0088 11.7401C29.0859 11.6342 29.111 11.5948 29.1655 11.5079C29.2292 11.4072 29.3357 11.2387 29.6259 10.8062C29.8065 10.5364 29.9914 10.2649 30.1751 9.99794L30.1781 9.99388L30.1806 9.98983C31.4283 7.99811 31.6346 7.43649 31.7387 7.03177C31.7993 6.7967 31.8422 6.55179 31.8673 6.30398L31.9132 5.846L31.4969 6.08339C31.2134 6.24493 30.9373 6.42615 30.6759 6.62069C30.6551 6.63632 30.1555 7.00977 29.6676 7.51465C29.0964 8.10522 27.6564 9.96146 25.8461 12.6416L25.8393 12.6509L25.8332 12.6624C25.8332 12.6624 25.8087 12.7053 25.7696 12.7111C25.7659 12.7111 25.7628 12.7117 25.7591 12.7117C25.7371 12.7117 25.7157 12.7007 25.7065 12.6943L25.0331 12.2311L24.3657 11.772C24.3682 11.7401 24.3933 11.6672 24.468 11.5786L24.4723 11.5734L24.4759 11.5682C24.8831 11.0274 25.2951 10.4826 25.7004 9.94757C28.1193 6.75154 28.5001 6.2814 29.097 5.75568C29.992 4.96652 31.0585 4.3082 32.2683 3.79927M32.2358 3.55957C30.6355 4.22251 29.5812 5.01168 28.9298 5.58604C28.3188 6.12507 27.9246 6.61143 25.5014 9.81266C25.0043 10.4698 24.5849 11.0251 24.277 11.4338C24.1331 11.6041 24.0804 11.787 24.1545 11.897C24.1674 11.9161 24.1864 11.9364 24.2157 11.9549C24.6645 12.2635 25.1139 12.5727 25.5626 12.8813C25.5792 12.8929 25.6545 12.9427 25.7591 12.9427C25.7744 12.9427 25.791 12.9415 25.8075 12.9392C25.9716 12.9149 26.0457 12.7788 26.0524 12.7655C27.8321 10.1311 29.2819 8.25576 29.8482 7.6704C30.3288 7.17362 30.8277 6.80191 30.8277 6.80191C31.1473 6.56395 31.4301 6.39141 31.6236 6.28082C31.593 6.58769 31.5391 6.82739 31.5012 6.97561C31.4069 7.34153 31.2232 7.87189 29.9706 9.87056C29.8433 10.0553 29.651 10.3361 29.4196 10.6811C28.8845 11.479 28.9672 11.3875 28.8074 11.6075C27.9809 12.7441 27.5829 13.2287 27.5829 13.2287C27.5223 13.3028 27.3779 13.4765 27.3993 13.6919C27.414 13.8378 27.4954 13.9414 27.5829 14.0393C27.7317 14.2049 27.998 14.4637 28.4401 14.7341C28.5392 14.8064 28.7137 14.9124 28.917 14.9124C28.9415 14.9124 28.966 14.9107 28.9911 14.9078C29.2788 14.8701 29.4588 14.6212 29.5421 14.5025C30.4236 13.2461 30.8644 12.6179 31.6236 11.3759C32.3019 10.2666 32.4678 10.2486 32.9093 9.34947C33.0782 9.00555 33.3531 8.39993 33.5827 7.6125C33.7786 6.94087 33.9843 5.99249 34.0113 4.83335C33.9268 4.65386 33.7192 4.27462 33.2766 3.96486C32.8578 3.67132 32.4409 3.58794 32.2358 3.55957Z" fill="black"/>
<path d="M11.3579 38.0342C11.0775 38.0342 10.8467 37.8263 10.8327 37.5611C10.8259 37.4285 10.8737 37.3012 10.968 37.2022C11.0622 37.1037 11.1914 37.0458 11.3322 37.0395L34.9027 35.9336C34.9119 35.9336 34.9205 35.9336 34.929 35.9336C35.2094 35.9336 35.4402 36.1415 35.4543 36.4066C35.4684 36.6805 35.2443 36.9144 34.9547 36.9283L11.3843 38.0336C11.3751 38.0336 11.3665 38.0342 11.3579 38.0342Z" fill="#6941C6"/>
<path d="M34.9299 36.05C35.1448 36.05 35.3218 36.2092 35.3328 36.413C35.3383 36.5149 35.301 36.6127 35.2287 36.688C35.1565 36.7639 35.0573 36.8079 34.9495 36.8131L11.3791 37.9189C11.3723 37.9189 11.3656 37.9189 11.3589 37.9189C11.144 37.9189 10.967 37.7597 10.956 37.5559C10.945 37.3457 11.117 37.1662 11.3393 37.1558L34.9097 36.05C34.9165 36.05 34.9232 36.05 34.9306 36.05M34.9306 35.8184C34.9195 35.8184 34.9085 35.8184 34.8981 35.8189L11.3276 36.9248C10.9701 36.9416 10.694 37.2294 10.7117 37.5681C10.7289 37.8964 11.0154 38.1511 11.3589 38.1511C11.3699 38.1511 11.3803 38.1511 11.3913 38.1505L34.9618 37.0447C35.3193 37.0279 35.5954 36.7401 35.5777 36.4014C35.5605 36.0731 35.274 35.8184 34.9306 35.8184Z" fill="black"/>
<path d="M11.5298 41.5498C11.2494 41.5498 11.0186 41.3419 11.0045 41.0768C10.9905 40.8029 11.2145 40.569 11.5041 40.5551L35.0746 39.4498C35.0838 39.4498 35.0923 39.4492 35.1015 39.4492C35.3819 39.4492 35.6127 39.6571 35.6268 39.9223C35.6335 40.0548 35.5858 40.1822 35.4915 40.2806C35.3972 40.3791 35.268 40.437 35.1278 40.4439L11.5574 41.5498C11.5482 41.5498 11.5396 41.5498 11.531 41.5498H11.5298Z" fill="#6941C6"/>
<path d="M35.1024 39.5656C35.3173 39.5656 35.4943 39.7248 35.5053 39.9286C35.5163 40.1388 35.3443 40.3183 35.122 40.3287L11.5516 41.4346C11.5448 41.4346 11.5381 41.4346 11.5307 41.4346C11.3158 41.4346 11.1389 41.2753 11.1279 41.0715C11.1224 40.9696 11.1597 40.8718 11.232 40.7965C11.3042 40.7207 11.4034 40.6767 11.5111 40.6715L35.0816 39.5656C35.0884 39.5656 35.0951 39.5656 35.1024 39.5656ZM35.1024 39.334C35.0914 39.334 35.081 39.334 35.07 39.3346L11.4995 40.4404C11.142 40.4572 10.8659 40.745 10.8836 41.0837C10.9008 41.412 11.1873 41.6667 11.5307 41.6667C11.5418 41.6667 11.5522 41.6667 11.5632 41.6662L35.1337 40.5603C35.4912 40.5435 35.7673 40.2557 35.7495 39.917C35.7324 39.5887 35.4459 39.334 35.1024 39.334Z" fill="black"/>
<path d="M57.0128 18.6974H58.9261L55.3465 29.498H53.2172L50.5479 21.5056L47.8323 29.498H45.6876L42.108 18.6974H44.191L46.8757 26.9059L49.6684 18.6974H51.52L54.251 26.9522L57.0128 18.6974ZM69.787 29.498H67.6269L65.4204 26.335C65.2816 26.3504 65.1427 26.3504 65.0039 26.3504H62.566V29.498H60.5602V18.6974H65.0039C67.8429 18.6974 69.6018 20.1478 69.6018 22.5394C69.6018 24.1749 68.7686 25.3784 67.3028 25.9493L69.787 29.498ZM67.5806 22.5394C67.5806 21.1816 66.6702 20.3947 64.9113 20.3947H62.566V24.6995H64.9113C66.6702 24.6995 67.5806 23.8972 67.5806 22.5394ZM71.846 29.498V18.6974H73.8518V29.498H71.846ZM78.9641 29.498V20.3947H75.3845V18.6974H84.5496V20.3947H80.97V29.498H78.9641ZM86.0549 29.498V18.6974H88.0607V29.498H86.0549ZM98.5888 18.6974H100.579V29.498H98.9283L92.9725 22.1845V29.498H90.9821V18.6974H92.633L98.5888 26.011V18.6974ZM110.849 27.3379V23.9743H112.746V28.2791C111.62 29.1895 110.046 29.6523 108.519 29.6523C105.171 29.6523 102.702 27.3225 102.702 24.0977C102.702 20.873 105.171 18.5431 108.55 18.5431C110.355 18.5431 111.867 19.1449 112.885 20.3021L111.62 21.5365C110.771 20.6878 109.799 20.3021 108.642 20.3021C106.343 20.3021 104.723 21.8605 104.723 24.0977C104.723 26.2887 106.343 27.8934 108.627 27.8934C109.398 27.8934 110.154 27.7391 110.849 27.3379Z" fill="#6941C6"/>
<path d="M47.5855 32.7717C50.4245 32.7717 52.1834 34.222 52.1834 36.6136C52.1834 38.9897 50.4245 40.4555 47.5855 40.4555H45.1476V43.5723H43.1418V32.7717H47.5855ZM47.4929 38.7583C49.2518 38.7583 50.1622 37.9714 50.1622 36.6136C50.1622 35.2558 49.2518 34.4689 47.4929 34.4689H45.1476V38.7583H47.4929ZM61.7291 43.5723L60.649 41.0727H55.2487L54.1841 43.5723H52.1165L56.9768 32.7717H58.9518L63.8275 43.5723H61.7291ZM55.9276 39.4989H59.9855L57.9489 34.7775L55.9276 39.4989ZM65.2011 43.5723V32.7717H69.9225C73.425 32.7717 75.8165 34.9318 75.8165 38.172C75.8165 41.4121 73.425 43.5723 69.9225 43.5723H65.2011ZM67.2069 41.875H69.8299C72.2369 41.875 73.7953 40.4092 73.7953 38.172C73.7953 35.9347 72.2369 34.4689 69.8299 34.4689H67.2069V41.875Z" fill="#42307D"/>
</svg>
